<?xml version="1.0" standalone="no"?>
<!DOCTYPE svg PUBLIC "-//W3C//DTD SVG 20010904//EN"
 "http://www.w3.org/TR/2001/REC-SVG-20010904/DTD/svg10.dtd">
<svg version="1.0" xmlns="http://www.w3.org/2000/svg"
 width="300.000000pt" height="300.000000pt" viewBox="0 0 300.000000 300.000000"
 preserveAspectRatio="xMidYMid meet">

<g transform="translate(0.000000,300.000000) scale(0.100000,-0.100000)"
fill="#000000" stroke="none">
<path d="M1454 2910 c-46 -10 -74 -34 -214 -174 l-125 -126 160 -160 160 -160
43 6 c88 13 181 -37 224 -119 16 -31 22 -60 23 -109 l0 -68 149 -149 148 -148
67 1 c78 0 133 -23 179 -79 109 -133 34 -328 -140 -360 -52 -10 -136 17 -177
57 -55 54 -73 100 -70 179 l4 68 -138 139 -137 139 0 -378 0 -378 30 -21 c42
-30 80 -99 87 -157 11 -98 -64 -205 -162 -233 -157 -44 -308 98 -274 259 10
47 20 63 70 114 l59 59 0 384 c0 313 -2 384 -13 384 -19 0 -83 66 -102 105
-18 39 -23 95 -12 145 7 35 6 37 -151 193 l-157 157 -442 -442 c-393 -394
-443 -448 -453 -486 -12 -46 -7 -90 16 -132 7 -14 304 -316 661 -672 568 -566
653 -648 689 -657 48 -13 97 -6 139 20 17 10 317 305 667 656 571 572 638 642
648 681 12 46 7 90 -16 132 -7 14 -304 316 -661 672 -715 713 -679 682 -779
658z"/>
</g>
</svg>
